<?xml version="1.0" encoding="iso-8859-1"?>
<!-- Generator: Adobe Illustrator 19.0.0, SVG Export Plug-In . SVG Version: 6.00 Build 0)  -->
<svg version="1.1" id="Layer_1" xmlns="http://www.w3.org/2000/svg" xmlns:xlink="http://www.w3.org/1999/xlink" x="0px" y="0px"
	 viewBox="0 0 64.327 64.327" style="enable-background:new 0 0 64.327 64.327;" xml:space="preserve">
<g>
	<g>
		<path style="fill:#56B300;" d="M33.581,17.106c0,0-2.195-16.365,17.606-17.106C51.187,0,50.217,18.424,33.581,17.106z"/>
	</g>
	<g>
		<path style="fill:#985123;" d="M35.628,25.727c0,1.795-1.455,3.25-3.25,3.25h-0.5c-1.795,0-3.25-1.455-3.25-3.25v-19.5
			c0-1.795,1.455-3.25,3.25-3.25h0.5c1.795,0,3.25,1.455,3.25,3.25V25.727z"/>
	</g>
	<g>
		<path style="fill:#FF4A44;" d="M51.364,13.475c-14.972-3.905-19.189,9.598-19.189,9.598l-0.025,1.053l0.002-1.053
			c0,0-4.219-13.503-19.189-9.598c-14.972,3.905-13.995,28.64-0.326,42.309c11.489,11.488,17.695,8.494,19.072,7.246
			c1.597,1.248,8.492,4.242,19.982-7.246C65.359,42.114,66.335,17.38,51.364,13.475z"/>
	</g>
</g>
<g>
</g>
<g>
</g>
<g>
</g>
<g>
</g>
<g>
</g>
<g>
</g>
<g>
</g>
<g>
</g>
<g>
</g>
<g>
</g>
<g>
</g>
<g>
</g>
<g>
</g>
<g>
</g>
<g>
</g>
</svg>
