<?xml version="1.0" encoding="iso-8859-1"?>
<!-- Generator: Adobe Illustrator 19.0.0, SVG Export Plug-In . SVG Version: 6.00 Build 0)  -->
<svg version="1.1" id="Layer_1" xmlns="http://www.w3.org/2000/svg" xmlns:xlink="http://www.w3.org/1999/xlink" x="0px" y="0px"
	 viewBox="0 0 76.025 76.025" style="enable-background:new 0 0 76.025 76.025;" xml:space="preserve">
<g>
	<g>
		<path style="fill:#9AD166;" d="M55.168,39.024C55.168,48.399,47.568,56,38.193,56h-1.049c-9.375,0-16.976-7.601-16.976-16.976
			V16.976C20.169,7.601,27.77,0,37.145,0h1.049c9.375,0,16.976,7.601,16.976,16.976L55.168,39.024L55.168,39.024z"/>
	</g>
	<g>
		<circle style="fill:#9AD166;" cx="38.013" cy="49.358" r="26.667"/>
	</g>
	<g>
		<circle style="fill:#985123;" cx="38.013" cy="49.358" r="16"/>
	</g>
	<g>
		<path style="fill:#723D1A;" d="M39.969,33.49c4.802,2.761,8.044,7.932,8.044,13.868c0,8.836-7.164,16-16,16
			c-0.663,0-1.313-0.053-1.956-0.132c2.346,1.349,5.057,2.132,7.956,2.132c8.836,0,16-7.164,16-16
			C54.013,41.186,47.88,34.456,39.969,33.49z"/>
	</g>
	<g>
		<circle style="fill:#AD744F;" cx="32.68" cy="47.691" r="6"/>
	</g>
</g>
<g>
</g>
<g>
</g>
<g>
</g>
<g>
</g>
<g>
</g>
<g>
</g>
<g>
</g>
<g>
</g>
<g>
</g>
<g>
</g>
<g>
</g>
<g>
</g>
<g>
</g>
<g>
</g>
<g>
</g>
</svg>
