<?xml version="1.0" encoding="iso-8859-1"?>
<!-- Generator: Adobe Illustrator 19.0.0, SVG Export Plug-In . SVG Version: 6.00 Build 0)  -->
<svg version="1.1" id="Layer_1" xmlns="http://www.w3.org/2000/svg" xmlns:xlink="http://www.w3.org/1999/xlink" x="0px" y="0px"
	 viewBox="0 0 83.631 83.631" style="enable-background:new 0 0 83.631 83.631;" xml:space="preserve">
<g>
	<g>
		<g>
			<path style="fill:#FFB100;" d="M75.729,25.946c-1.159,3.498-3.638,6.869-5.89,9.432c-0.33,0.373-0.66,0.73-1.043,1.053
				c-3.027,2.541-4.67,4.01-7.056,5.254c-0.233,0.164-0.466,0.326-0.717,0.5c-5.14,3.527-12.395,4.283-18.325,2.836
				c-6.216-1.514-11.64-5.482-14.966-10.951c-2.77-4.555-3.913-9.924-3.347-15.184c0.063-1.039,0.201-2.072,0.397-3.094
				c-3.408-1.281-6.714-2.631-9.852-3.881C8.735,23.061,8.527,37.124,15.628,48.8C26.151,66.105,48.707,71.603,66.01,61.081
				c11.933-7.258,18.246-20.232,17.572-33.264C80.901,27.513,78.264,26.878,75.729,25.946z"/>
		</g>
		<g>
			<path style="fill:#FF9600;" d="M15.196,24.647c3.112,0.205,6.23,0.367,9.344,0.514c-0.318-2.068-0.378-4.178-0.153-6.275
				c0.063-1.039,0.201-2.072,0.397-3.094c-3.408-1.281-6.714-2.631-9.852-3.881c-2.144,3.857-3.548,8.066-4.196,12.402
				C12.221,24.437,13.709,24.552,15.196,24.647z"/>
		</g>
	</g>
	<g>
		<g>
			<path style="fill:#FFD01F;" d="M64.584,51.319c-2.868,2.44-6.82,4.065-10.146,5.107c-0.487,0.15-0.966,0.287-1.472,0.365
				c-3.991,0.611-6.202,1.02-8.945,0.84c-0.289,0.02-0.578,0.037-0.889,0.057c-6.357,0.352-13.091-2.84-17.5-7.252
				c-4.621-4.619-7.25-10.961-7.25-17.498c0-5.447,1.851-10.738,5.137-15.027c0.607-0.877,1.275-1.705,1.989-2.49
				c-2.294-2.928-4.465-5.861-6.54-8.617C7.643,13.245,0,25.411,0,39.37c0,20.688,16.771,37.457,37.457,37.457
				c14.264,0,26.661-7.975,32.988-19.705C68.267,55.431,66.301,53.478,64.584,51.319z"/>
		</g>
		<g>
			<path style="fill:#FF9600;" d="M12.44,18.062c2.608,1.832,5.242,3.623,7.882,5.406c0.821-1.975,1.888-3.85,3.197-5.557
				c0.607-0.877,1.275-1.705,1.989-2.49c-2.294-2.928-4.465-5.861-6.54-8.617c-3.918,2.229-7.378,5.158-10.244,8.6
				C9.957,16.298,11.193,17.187,12.44,18.062z"/>
		</g>
	</g>
</g>
<g>
</g>
<g>
</g>
<g>
</g>
<g>
</g>
<g>
</g>
<g>
</g>
<g>
</g>
<g>
</g>
<g>
</g>
<g>
</g>
<g>
</g>
<g>
</g>
<g>
</g>
<g>
</g>
<g>
</g>
</svg>
