<?xml version="1.0" encoding="iso-8859-1"?>
<!-- Generator: Adobe Illustrator 19.0.0, SVG Export Plug-In . SVG Version: 6.00 Build 0)  -->
<svg version="1.1" id="Layer_1" xmlns="http://www.w3.org/2000/svg" xmlns:xlink="http://www.w3.org/1999/xlink" x="0px" y="0px"
	 viewBox="0 0 87.654 87.654" style="enable-background:new 0 0 87.654 87.654;" xml:space="preserve">
<g>
	<g>
		<g>
			<path style="fill:#56B300;" d="M44.052,34.047c0,0-19.801-11.508-15.364-34.047C28.688,0,46.484,8.848,44.052,34.047z"/>
		</g>
		<g>
			<path style="fill:#56B300;" d="M43.601,34.047c0,0,19.801-11.508,15.364-34.047C58.965,0,41.169,8.848,43.601,34.047z"/>
		</g>
		<g>
			<path style="fill:#008218;" d="M46.649,25.823c0,1.783-1.445,3.229-3.229,3.229h-0.543c-1.783,0-3.228-1.446-3.228-3.229V3.282
				c0-1.783,1.445-3.23,3.228-3.23h0.543c1.783,0,3.229,1.446,3.229,3.23V25.823z"/>
		</g>
	</g>
	<g>
		<circle style="fill:#793B76;" cx="43.827" cy="43.324" r="26"/>
	</g>
	<g>
		<path style="fill:#793B76;" d="M47.024,84.143c-0.342,4.681-5.694,4.681-6.395,0l-3.948-22.894c0-3.875,3.142-7.196,7.019-7.196
			h0.256c3.875,0,7.017,3.321,7.017,7.196L47.024,84.143z"/>
	</g>
</g>
<g>
</g>
<g>
</g>
<g>
</g>
<g>
</g>
<g>
</g>
<g>
</g>
<g>
</g>
<g>
</g>
<g>
</g>
<g>
</g>
<g>
</g>
<g>
</g>
<g>
</g>
<g>
</g>
<g>
</g>
</svg>
