<?xml version="1.0" encoding="iso-8859-1"?>
<!-- Generator: Adobe Illustrator 19.0.0, SVG Export Plug-In . SVG Version: 6.00 Build 0)  -->
<svg version="1.1" id="Layer_1" xmlns="http://www.w3.org/2000/svg" xmlns:xlink="http://www.w3.org/1999/xlink" x="0px" y="0px"
	 viewBox="0 0 81.997 81.997" style="enable-background:new 0 0 81.997 81.997;" xml:space="preserve">
<g>
	<g>
		<path style="fill:#56B300;" d="M40.916,30.485c0,0,2.792-18.608-14.888-23.726C26.028,6.759,23.237,24.902,40.916,30.485z"/>
	</g>
	<g>
		<path style="fill:#56B300;" d="M40.123,30.485c0,0-2.792-18.608,14.888-23.726C55.01,6.759,57.801,24.902,40.123,30.485z"/>
	</g>
	<g>
		<path style="fill:#56B300;" d="M40.71,28.005c0,0-11.976-14.514,0.539-28.005C41.249,0,52.987,14.114,40.71,28.005z"/>
	</g>
	<g>
		<path style="fill:#FFD01F;" d="M54.485,15.8l-0.484-0.055c-5.402-0.601-7.896,2.383-13.002,2.383
			c-5.105,0-7.601-2.983-13.002-2.383L27.512,15.8c-7.369,0.819-12.691,7.336-11.873,14.704L25.28,74.12
			c2.963,12.573,11.491,6.325,15.719,6.325s12.755,6.248,15.718-6.325l9.642-43.616C67.177,23.136,61.854,16.619,54.485,15.8z"/>
	</g>
</g>
<g>
</g>
<g>
</g>
<g>
</g>
<g>
</g>
<g>
</g>
<g>
</g>
<g>
</g>
<g>
</g>
<g>
</g>
<g>
</g>
<g>
</g>
<g>
</g>
<g>
</g>
<g>
</g>
<g>
</g>
</svg>
