<?xml version="1.0" encoding="iso-8859-1"?>
<!-- Generator: Adobe Illustrator 19.0.0, SVG Export Plug-In . SVG Version: 6.00 Build 0)  -->
<svg version="1.1" id="Layer_1" xmlns="http://www.w3.org/2000/svg" xmlns:xlink="http://www.w3.org/1999/xlink" x="0px" y="0px"
	 viewBox="0 0 82.363 82.363" style="enable-background:new 0 0 82.363 82.363;" xml:space="preserve">
<g>
	<g>
		<path style="fill:#56B300;" d="M41.408,34.266c0,0-19.928-11.582-15.462-34.266C25.946,0,43.855,8.904,41.408,34.266z"/>
	</g>
	<g>
		<path style="fill:#56B300;" d="M40.955,34.266c0,0,19.928-11.582,15.462-34.266C56.417,0,38.508,8.904,40.955,34.266z"/>
	</g>
	<g>
		<path style="fill:#008218;" d="M44.504,26.184c0,1.795-1.455,3.25-3.25,3.25h-0.5c-1.795,0-3.25-1.455-3.25-3.25v-22.5
			c0-1.795,1.455-3.25,3.25-3.25h0.5c1.795,0,3.25,1.455,3.25,3.25V26.184z"/>
	</g>
	<g>
		<path style="fill:#FF9600;" d="M47.916,74.82c-0.734,10.057-12.234,10.057-13.737,0l-8.483-49.053
			c0-8.327,6.75-15.334,15.077-15.334h0.549c8.327,0,15.077,7.007,15.077,15.334L47.916,74.82z"/>
	</g>
</g>
<g>
</g>
<g>
</g>
<g>
</g>
<g>
</g>
<g>
</g>
<g>
</g>
<g>
</g>
<g>
</g>
<g>
</g>
<g>
</g>
<g>
</g>
<g>
</g>
<g>
</g>
<g>
</g>
<g>
</g>
</svg>
