<?xml version="1.0" encoding="iso-8859-1"?>
<!-- Generator: Adobe Illustrator 19.0.0, SVG Export Plug-In . SVG Version: 6.00 Build 0)  -->
<svg version="1.1" id="Layer_1" xmlns="http://www.w3.org/2000/svg" xmlns:xlink="http://www.w3.org/1999/xlink" x="0px" y="0px"
	 viewBox="0 0 75.669 75.669" style="enable-background:new 0 0 75.669 75.669;" xml:space="preserve">
<g>
	<g>
		<path style="fill:#985123;" d="M15.089,56.691l-3.845-3.363c0.241-0.29,24.089-29.568,24.089-51.568h5
			c0,10-4.269,22.591-12.687,36.697C21.453,48.839,15.347,56.383,15.089,56.691z"/>
	</g>
	<g>
		<path style="fill:#985123;" d="M60.578,56.691c-0.258-0.309-6.363-7.853-12.558-18.234C39.602,24.351,35.334,11.76,35.334,1.76h5
			c0,22,23.848,51.279,24.089,51.568L60.578,56.691z"/>
	</g>
	<g>
		<path style="fill:#56B300;" d="M37.945,1.781c0,0-6.801,23.281-30.015,19.749C7.93,21.529,14.483-1.213,37.945,1.781z"/>
	</g>
	<g>
		<path style="fill:#FF4A44;" d="M68.125,45.145c-8.333-0.794-9.186,6.745-9.186,6.745l0.312,0.526l-0.091-0.562
			c0,0-3.653-6.812-11.312-3.434s-5.12,16.524,3.361,22.645c7.127,5.145,15.626,3.771,20.771-3.356
			C78.101,59.229,76.459,45.94,68.125,45.145z"/>
	</g>
	<g>
		<path style="fill:#FF4A44;" d="M7.543,45.145c8.333-0.794,9.186,6.745,9.186,6.745l-0.311,0.526l0.091-0.562
			c0,0,3.653-6.812,11.312-3.434s5.12,16.524-3.361,22.645c-7.127,5.145-15.626,3.771-20.771-3.356
			C-2.434,59.229-0.791,45.94,7.543,45.145z"/>
	</g>
</g>
<g>
</g>
<g>
</g>
<g>
</g>
<g>
</g>
<g>
</g>
<g>
</g>
<g>
</g>
<g>
</g>
<g>
</g>
<g>
</g>
<g>
</g>
<g>
</g>
<g>
</g>
<g>
</g>
<g>
</g>
</svg>
