<?xml version="1.0" encoding="iso-8859-1"?>
<!-- Generator: Adobe Illustrator 19.0.0, SVG Export Plug-In . SVG Version: 6.00 Build 0)  -->
<svg version="1.1" id="Layer_1" xmlns="http://www.w3.org/2000/svg" xmlns:xlink="http://www.w3.org/1999/xlink" x="0px" y="0px"
	 viewBox="0 0 86.486 86.486" style="enable-background:new 0 0 86.486 86.486;" xml:space="preserve">
<g>
	<g>
		<path style="fill:#FF4A44;" d="M50.112,78.943C49.377,89,37.877,89,36.374,78.943l-8.483-48.831
			c0-8.327,6.75-15.112,15.077-15.112h0.549c8.327,0,15.077,6.785,15.077,15.112L50.112,78.943z"/>
	</g>
	<g>
		<g>
			<polygon style="fill:#56B300;" points="46.411,25 41.069,25 39.999,0 47.48,0 			"/>
		</g>
		<g>
			<path style="fill:#56B300;" d="M42.01,10.393c0.347,1.73,0.534,3.511,0.534,5.331c0,0.065-0.004,0.129-0.006,0.194
				c2.553,3.766,7.263,7.931,15.377,6.877C57.915,22.795,54.62,10.356,42.01,10.393z"/>
		</g>
		<g>
			<path style="fill:#56B300;" d="M45.613,10.613c0,0-2.747,14.378-17.042,13.578C28.571,24.191,31.199,10.155,45.613,10.613z"/>
		</g>
		<g>
			<path style="fill:#56B300;" d="M43.427,9.106c0,0,9.316,11.289-0.421,21.783C43.006,30.889,33.876,19.909,43.427,9.106z"/>
		</g>
	</g>
</g>
<g>
</g>
<g>
</g>
<g>
</g>
<g>
</g>
<g>
</g>
<g>
</g>
<g>
</g>
<g>
</g>
<g>
</g>
<g>
</g>
<g>
</g>
<g>
</g>
<g>
</g>
<g>
</g>
<g>
</g>
</svg>
