<?xml version="1.0" encoding="iso-8859-1"?>
<!-- Generator: Adobe Illustrator 19.0.0, SVG Export Plug-In . SVG Version: 6.00 Build 0)  -->
<svg version="1.1" id="Layer_1" xmlns="http://www.w3.org/2000/svg" xmlns:xlink="http://www.w3.org/1999/xlink" x="0px" y="0px"
	 viewBox="0 0 91.713 91.713" style="enable-background:new 0 0 91.713 91.713;" xml:space="preserve">
<g>
	<g>
		<path style="fill:#FFD01F;" d="M60.495,47.646C60.495,55.573,54.068,62,46.14,62h-0.291c-7.928,0-14.354-6.427-14.354-14.354
			V14.354C31.495,6.427,37.921,0,45.849,0h0.291c7.928,0,14.355,6.427,14.355,14.354V47.646z"/>
	</g>
	<g>
		<path style="fill:#56B300;" d="M67.583,35.713c-10.729,0-19.81,11.727-21.623,23.264C44.147,47.44,35.123,35.713,24.393,35.713
			c0,0-7.899,55.56,21.101,55.99v0.01v-0.005v0.005v-0.01C74.494,91.272,67.583,35.713,67.583,35.713z"/>
	</g>
</g>
<g>
</g>
<g>
</g>
<g>
</g>
<g>
</g>
<g>
</g>
<g>
</g>
<g>
</g>
<g>
</g>
<g>
</g>
<g>
</g>
<g>
</g>
<g>
</g>
<g>
</g>
<g>
</g>
<g>
</g>
</svg>
