<?xml version="1.0" encoding="iso-8859-1"?>
<!-- Generator: Adobe Illustrator 19.0.0, SVG Export Plug-In . SVG Version: 6.00 Build 0)  -->
<svg version="1.1" id="Layer_1" xmlns="http://www.w3.org/2000/svg" xmlns:xlink="http://www.w3.org/1999/xlink" x="0px" y="0px"
	 viewBox="0 0 80.296 80.296" style="enable-background:new 0 0 80.296 80.296;" xml:space="preserve">
<g>
	<g>
		<path style="fill:#56B300;" d="M41.59,17.106c0,0-2.195-16.365,17.606-17.106C59.197,0,58.227,18.424,41.59,17.106z"/>
	</g>
	<g>
		<path style="fill:#985123;" d="M43.638,25.711c0,1.795-1.455,3.25-3.25,3.25h-0.5c-1.795,0-3.25-1.455-3.25-3.25v-19.5
			c0-1.795,1.455-3.25,3.25-3.25h0.5c1.795,0,3.25,1.455,3.25,3.25V25.711z"/>
	</g>
	<g>
		<circle style="fill:#793B76;" cx="40.148" cy="67.63" r="12.666"/>
	</g>
	<g>
		<g>
			<circle style="fill:#793B76;" cx="29.148" cy="51.63" r="12.666"/>
		</g>
		<g>
			<circle style="fill:#793B76;" cx="51.148" cy="51.63" r="12.666"/>
		</g>
	</g>
	<g>
		<g>
			<circle style="fill:#793B76;" cx="18.148" cy="32.63" r="12.666"/>
		</g>
		<g>
			<circle style="fill:#793B76;" cx="62.148" cy="32.63" r="12.666"/>
		</g>
		<g>
			<circle style="fill:#793B76;" cx="40.148" cy="32.63" r="12.666"/>
		</g>
	</g>
</g>
<g>
</g>
<g>
</g>
<g>
</g>
<g>
</g>
<g>
</g>
<g>
</g>
<g>
</g>
<g>
</g>
<g>
</g>
<g>
</g>
<g>
</g>
<g>
</g>
<g>
</g>
<g>
</g>
<g>
</g>
</svg>
