<?xml version="1.0" encoding="iso-8859-1"?>
<!-- Generator: Adobe Illustrator 19.0.0, SVG Export Plug-In . SVG Version: 6.00 Build 0)  -->
<svg version="1.1" id="Layer_1" xmlns="http://www.w3.org/2000/svg" xmlns:xlink="http://www.w3.org/1999/xlink" x="0px" y="0px"
	 viewBox="0 0 85.294 85.294" style="enable-background:new 0 0 85.294 85.294;" xml:space="preserve">
<g>
	<g>
		<path style="fill:#56B300;" d="M44.695,18.406c0,0-2.362-17.609,18.944-18.406C63.639,0,62.596,19.824,44.695,18.406z"/>
	</g>
	<g>
		<path style="fill:#985123;" d="M47.646,27.797c0,1.931-1.566,3.497-3.497,3.497h-1.006c-1.931,0-3.497-1.566-3.497-3.497V6.791
			c0-1.931,1.566-3.497,3.497-3.497h1.006c1.931,0,3.497,1.566,3.497,3.497V27.797z"/>
	</g>
	<g>
		<path style="fill:#FFD01F;" d="M56.646,47.163c0,7.252-5.879,13.131-13.132,13.131h-0.736c-7.252,0-13.132-5.879-13.132-13.131
			V30.425c0-7.252,5.879-13.131,13.132-13.131h0.736c7.252,0,13.132,5.879,13.132,13.131V47.163z"/>
	</g>
	<g>
		<path style="fill:#FFD01F;" d="M65.646,62.402c0,12.643-10.25,22.892-22.893,22.892h-0.214c-12.643,0-22.893-10.249-22.893-22.892
			v-0.217c0-12.643,10.249-22.892,22.893-22.892h0.215c12.643,0,22.893,10.249,22.893,22.892L65.646,62.402L65.646,62.402z"/>
	</g>
</g>
<g>
</g>
<g>
</g>
<g>
</g>
<g>
</g>
<g>
</g>
<g>
</g>
<g>
</g>
<g>
</g>
<g>
</g>
<g>
</g>
<g>
</g>
<g>
</g>
<g>
</g>
<g>
</g>
<g>
</g>
</svg>
