<?xml version="1.0" encoding="iso-8859-1"?>
<!-- Generator: Adobe Illustrator 19.0.0, SVG Export Plug-In . SVG Version: 6.00 Build 0)  -->
<svg version="1.1" id="Layer_1" xmlns="http://www.w3.org/2000/svg" xmlns:xlink="http://www.w3.org/1999/xlink" x="0px" y="0px"
	 viewBox="0 0 100.846 100.846" style="enable-background:new 0 0 100.846 100.846;" xml:space="preserve">
<g>
	<g>
		<path style="fill:#56B300;" d="M50.934,42.083c0,0-17.998-21.81,0.813-42.083C51.746,0,69.385,21.21,50.934,42.083z"/>
	</g>
	<g>
		<path style="fill:#56B300;" d="M68.706,44.243c0,0,0.001-15.213,15.904-21.437c0,0-11.063-6.914-22.818,3.458
			C50.036,36.636,56.26,55.306,56.26,55.306L68.706,44.243z"/>
	</g>
	<g>
		<path style="fill:#008218;" d="M60.977,38.516c0,0,0.001-17.429,18.222-24.559c0,0-12.675-7.923-26.145,3.961
			c-13.468,11.884-6.338,33.274-6.338,33.274L60.977,38.516z"/>
	</g>
	<g>
		<path style="fill:#56B300;" d="M32.14,44.243c0,0-0.001-15.213-15.904-21.437c0,0,11.062-6.914,22.818,3.458
			c11.756,10.371,5.532,29.041,5.532,29.041L32.14,44.243z"/>
	</g>
	<g>
		<path style="fill:#008218;" d="M39.868,38.516c0,0-0.001-17.429-18.222-24.559c0,0,12.675-7.923,26.145,3.961
			c13.468,11.884,6.338,33.274,6.338,33.274L39.868,38.516z"/>
	</g>
	<g>
		<path style="fill:#FF9600;" d="M75.95,75.58c0,13.954-11.312,25.266-25.266,25.266h-0.469c-13.954,0-25.266-11.312-25.266-25.266
			V60.111c0-13.954,11.311-25.266,25.266-25.266h0.469c13.954,0,25.266,11.312,25.266,25.266V75.58z"/>
	</g>
</g>
<g>
</g>
<g>
</g>
<g>
</g>
<g>
</g>
<g>
</g>
<g>
</g>
<g>
</g>
<g>
</g>
<g>
</g>
<g>
</g>
<g>
</g>
<g>
</g>
<g>
</g>
<g>
</g>
<g>
</g>
</svg>
