<?xml version="1.0" encoding="iso-8859-1"?>
<!-- Generator: Adobe Illustrator 19.0.0, SVG Export Plug-In . SVG Version: 6.00 Build 0)  -->
<svg version="1.1" id="Layer_1" xmlns="http://www.w3.org/2000/svg" xmlns:xlink="http://www.w3.org/1999/xlink" x="0px" y="0px"
	 viewBox="0 0 76.679 76.679" style="enable-background:new 0 0 76.679 76.679;" xml:space="preserve">
<g>
	<g>
		<path style="fill:#FFC066;" d="M61,50.003c0,9.713-7.874,17.587-17.586,17.587H17.586C7.873,67.59,0,59.716,0,50.003v-3.826
			C0,36.464,7.873,28.59,17.586,28.59h25.827C53.126,28.59,61,36.464,61,46.177V50.003z"/>
	</g>
	<g>
		<path style="fill:#AD744F;" d="M67.447,62.552c-7.436,6.249-18.529,5.288-24.778-2.147L25.923,40.48
			c-6.249-7.436-5.288-18.529,2.147-24.779l2.961-2.488c7.436-6.25,18.529-5.287,24.778,2.148l16.746,19.925
			c6.249,7.436,5.288,18.528-2.147,24.777L67.447,62.552z"/>
	</g>
</g>
<g>
</g>
<g>
</g>
<g>
</g>
<g>
</g>
<g>
</g>
<g>
</g>
<g>
</g>
<g>
</g>
<g>
</g>
<g>
</g>
<g>
</g>
<g>
</g>
<g>
</g>
<g>
</g>
<g>
</g>
</svg>
