<?xml version="1.0" encoding="iso-8859-1"?>
<!-- Generator: Adobe Illustrator 19.0.0, SVG Export Plug-In . SVG Version: 6.00 Build 0)  -->
<svg version="1.1" id="Layer_1" xmlns="http://www.w3.org/2000/svg" xmlns:xlink="http://www.w3.org/1999/xlink" x="0px" y="0px"
	 viewBox="0 0 76.628 76.628" style="enable-background:new 0 0 76.628 76.628;" xml:space="preserve">
<g>
	<g>
		<path style="fill:#008218;" d="M28.17,37.279c0,0,6.337-27.978,34.28-25.462C62.45,11.817,56.372,39.132,28.17,37.279z"/>
	</g>
	<g>
		<path style="fill:#008218;" d="M49.127,37.279c0,0-6.337-27.978-34.28-25.462C14.847,11.817,20.925,39.132,49.127,37.279z"/>
	</g>
	<g>
		<path style="fill:#008218;" d="M38.57,37.806c0,0-16.169-19.593,0.729-37.806C39.3,0,55.146,19.055,38.57,37.806z"/>
	</g>
	<g>
		<path style="fill:#FF4A44;" d="M50.329,63.435c-1.285,17.59-21.4,17.59-24.029,0c0,0-14.836-13.718-14.836-22.466
			c0-12.861,11.808-22.317,26.371-22.317h0.961c14.563,0,26.367,8.827,26.367,22.317C65.163,46.555,50.329,63.435,50.329,63.435z"/>
	</g>
</g>
<g>
</g>
<g>
</g>
<g>
</g>
<g>
</g>
<g>
</g>
<g>
</g>
<g>
</g>
<g>
</g>
<g>
</g>
<g>
</g>
<g>
</g>
<g>
</g>
<g>
</g>
<g>
</g>
<g>
</g>
</svg>
